Music_IntroBattle_Ch0::
	tempo 180
	volume 7, 7
	duty 3
	vibrato 6, 3, 4
	toggleperfectpitch
	notetype 12, 11, 1
	rest 8
	octave 4
	E_ 2
	D_ 2
	C_ 2
	D_ 2
	E_ 3
	E_ 2
	E_ 4
	D_ 2
	D_ 2
	D_ 4
	E_ 2
	A_ 2
	A_ 4
	notetype 12, 11, 4
	octave 12
	D_ 4
	notetype 12, 11, 1
	octave 8
	A_ 2
	A_ 2
	notetype 12, 2, 9
	octave 12
	G_ 4
	notetype 12, 11, 0
	A_ 8
	octave 8
	A_ 8
	notetype 12, 11, 7
	octave 12
	F_ 8
	notetype 12, 4, 15
	octave 8
	F_ 8
	notetype 12, 11, 1
	A_ 2
	A_ 2
	notetype 12, 11, 4
	octave 12
	D_ 4
	notetype 12, 11, 1
	octave 8
	A_ 2
	A_ 2
	notetype 12, 11, 4
	octave 12
	D# 4
	notetype 12, 11, 1
	octave 8
	A_ 2
	A_ 2
	notetype 12, 11, 4
	octave 12
	F_ 4
	notetype 12, 11, 1
	octave 8
	A_ 2
	A_ 2
	notetype 12, 11, 4
	octave 12
	G_ 4
	notetype 12, 11, 0
	F# 16
	notetype 12, 11, 1
	octave 4
	D_ 16
	endchannel


Music_IntroBattle_Ch1::
	duty 3
	vibrato 8, 2, 5
	notetype 12, 12, 2
	rest 8
	octave 12
	D_ 2
	D_ 2
	notetype 12, 12, 5
	A_ 4
	notetype 12, 12, 2
	D_ 2
	D_ 2
	notetype 12, 12, 5
	A# 4
	notetype 12, 12, 2
	D_ 2
	D_ 2
	notetype 12, 12, 5
	A_ 4
	notetype 12, 12, 2
	D_ 2
	D_ 2
	notetype 12, 11, 7
	C# 4
	notetype 12, 12, 2
	D_ 2
	D_ 2
	notetype 12, 12, 5
	A_ 4
	notetype 12, 12, 2
	octave 12
	D_ 2
	D_ 2
	notetype 12, 12, 7
	octave 4
	C# 4
	D_ 8
	octave 12
	D_ 8
	octave 4
	C_ 8
	octave 12
	C_ 8
	notetype 12, 12, 2
	D_ 2
	D_ 2
	notetype 12, 12, 5
	A_ 4
	notetype 12, 12, 2
	D_ 2
	D_ 2
	notetype 12, 12, 5
	A# 4
	notetype 12, 12, 2
	D_ 2
	D_ 2
	notetype 12, 12, 5
	octave 4
	C_ 4
	notetype 12, 12, 2
	octave 12
	D_ 2
	D_ 2
	notetype 12, 12, 5
	octave 4
	C# 4
	notetype 12, 2, 15
	D_ 16
	notetype 12, 12, 1
	octave 5
	D_ 16
	endchannel


Music_IntroBattle_Ch2::
	notetype 12, 1, 0
	rest 8
	octave 4
	D_ 1
	rest 1
	D_ 1
	rest 1
	A_ 4
	D_ 1
	rest 1
	D_ 1
	rest 1
	A_ 4
	D_ 1
	rest 1
	D_ 1
	rest 1
	A_ 4
	D_ 1
	rest 1
	D_ 1
	rest 1
	F# 4
	D_ 1
	rest 1
	D_ 1
	rest 1
	A_ 4
	D_ 1
	rest 1
	D_ 1
	rest 1
	A# 4
	A_ 8
	D_ 8
	A# 8
	D_ 8
	D_ 1
	rest 1
	D_ 1
	rest 1
	A_ 4
	D_ 1
	rest 1
	D_ 1
	rest 1
	A_ 4
	D_ 1
	rest 1
	D_ 1
	rest 1
	A# 4
	D_ 1
	rest 1
	D_ 1
	rest 1
	A# 4
	A_ 16
	D_ 1
	rest 15
	endchannel


Music_IntroBattle_Ch3::
	dspeed 6
	mutedsnare4 1
	mutedsnare4 1
	mutedsnare4 1
	mutedsnare4 1
	mutedsnare3 1
	mutedsnare4 1
	mutedsnare3 1
	mutedsnare4 1
	mutedsnare3 1
	mutedsnare4 1
	mutedsnare3 1
	mutedsnare3 1
	mutedsnare3 1
	mutedsnare3 1
	mutedsnare2 1
	mutedsnare2 1
	mutedsnare2 4
	mutedsnare2 4
	mutedsnare4 1
	mutedsnare4 1
	mutedsnare4 1
	mutedsnare4 1
	mutedsnare3 1
	mutedsnare3 1
	mutedsnare3 1
	mutedsnare3 1
	mutedsnare2 4
	mutedsnare2 4
	mutedsnare2 8
	mutedsnare2 4
	mutedsnare2 4
	mutedsnare2 8
	mutedsnare2 4
	mutedsnare2 4
	mutedsnare4 1
	mutedsnare4 1
	mutedsnare4 1
	mutedsnare4 1
	mutedsnare3 1
	mutedsnare3 1
	mutedsnare3 1
	mutedsnare3 1
	mutedsnare2 4
	mutedsnare2 4
	mutedsnare2 8
	mutedsnare2 4
	mutedsnare2 4
	mutedsnare2 4
	mutedsnare4 1
	mutedsnare4 1
	mutedsnare3 1
	mutedsnare3 1
	mutedsnare2 16
	mutedsnare2 16
	mutedsnare2 16
	mutedsnare4 1
	mutedsnare4 1
	mutedsnare4 1
	mutedsnare4 1
	mutedsnare3 1
	mutedsnare4 1
	mutedsnare3 1
	mutedsnare4 1
	mutedsnare3 1
	mutedsnare3 1
	mutedsnare3 1
	mutedsnare3 1
	mutedsnare2 1
	mutedsnare2 1
	mutedsnare2 1
	mutedsnare2 1
	mutedsnare2 4
	mutedsnare2 4
	mutedsnare2 8
	mutedsnare2 4
	mutedsnare2 4
	mutedsnare4 1
	mutedsnare4 1
	mutedsnare4 1
	mutedsnare4 1
	mutedsnare3 1
	mutedsnare3 1
	mutedsnare3 1
	mutedsnare3 1
	mutedsnare2 4
	mutedsnare2 4
	mutedsnare2 8
	mutedsnare2 4
	mutedsnare2 8
	mutedsnare2 4
	mutedsnare2 16
	mutedsnare2 16
	mutedsnare2 2
	rest 16
	rest 14
	endchannel
